<?xml version="1.0" standalone="no"?>
<!DOCTYPE svg PUBLIC "-//W3C//DTD SVG 20010904//EN"
 "http://www.w3.org/TR/2001/REC-SVG-20010904/DTD/svg10.dtd">
<svg version="1.0" xmlns="http://www.w3.org/2000/svg"
 width="700.000000pt" height="700.000000pt" viewBox="0 0 700.000000 700.000000"
 preserveAspectRatio="xMidYMid meet">
<metadata>
Created by potrace 1.11, written by Peter Selinger 2001-2013
</metadata>
<g transform="translate(0.000000,700.000000) scale(0.100000,-0.100000)"
fill="#000000" stroke="none">
<path d="M0 3500 l0 -3500 3500 0 3500 0 0 3500 0 3500 -3500 0 -3500 0 0
-3500z m1968 1894 c47 -9 118 -35 181 -65 89 -44 116 -63 191 -137 146 -146
212 -287 231 -495 6 -71 9 -573 7 -1367 l-4 -1255 -22 -80 c-77 -280 -285
-486 -556 -555 -61 -15 -112 -20 -223 -20 l-143 0 0 1658 c0 1791 2 1715 -53
1852 -77 188 -238 352 -416 421 -43 17 -61 29 -61 41 0 17 25 18 395 18 318 0
411 -3 473 -16z m1577 -7 c148 -44 290 -135 382 -246 72 -87 105 -147 145
-261 l33 -95 3 -1682 2 -1683 -470 0 -469 0 -3 1673 c-3 1595 -4 1675 -22
1737 -67 235 -210 406 -423 507 -157 75 -157 75 335 71 372 -3 435 -6 487 -21z
m1493 7 c151 -31 264 -94 382 -213 47 -47 100 -112 119 -143 49 -85 89 -211
101 -319 6 -58 10 -708 10 -1696 l0 -1603 -475 0 -475 0 0 1658 c0 1791 2
1715 -53 1852 -77 188 -238 352 -416 421 -43 17 -61 29 -61 41 0 17 25 18 395
18 322 0 410 -3 473 -16z"/>
</g>
</svg>
